<svg xmlns="http://www.w3.org/2000/svg" version="1.1" xmlns:xlink="http://www.w3.org/1999/xlink" xmlns:svgjs="http://svgjs.dev/svgjs" width="1000" height="1000" viewBox="0 0 1000 1000"><rect width="1000" height="1000" fill="#000000"></rect><g transform="matrix(0.7,0,0,0.7,150.3252022685216,154.48000000000002)"><svg viewBox="0 0 250 247" data-background-color="#c56e33" preserveAspectRatio="xMidYMid meet" height="988" width="1000" xmlns="http://www.w3.org/2000/svg" xmlns:xlink="http://www.w3.org/1999/xlink"><g id="tight-bounds" transform="matrix(1,0,0,1,-0.1161436673291405,-0.09999999999999432)"><svg viewBox="0 0 250.23228559078152 247.2" height="247.2" width="250.23228559078152"><g><svg viewBox="0 0 250.23228559078152 247.2" height="247.2" width="250.23228559078152"><g><svg viewBox="0 0 395.52 390.72713486657256" height="247.2" width="250.23228559078152"><g transform="matrix(1,0,0,1,0,277.2317944357728)"><svg viewBox="0 0 395.52 113.49534043079971" height="113.49534043079971" width="395.52"><g><svg viewBox="0 0 395.52 113.49534043079971" height="113.49534043079971" width="395.52"><g><svg viewBox="0 0 395.52 113.49534043079971" height="113.49534043079971" width="395.52"><g transform="matrix(1,0,0,1,0,0)"><svg width="395.52" viewBox="-10.300000190734863 -37.25 202.52999877929688 57.95000076293945" height="113.49534043079971" data-palette-color="#ffffff"><g class="undefined-text-0" data-fill-palette-color="primary" id="text-0"><path d="M23.5-34.4L23.5-34.4Q39.5-34.4 40.2-34.5 40.9-34.6 41.38-34.6 41.85-34.6 41.85-34.4 41.85-34.2 41.33-33.77 40.8-33.35 39.53-32.93 38.25-32.5 36.65-32.5L36.65-32.5 21.9-32.55Q15.45-32.45 9.58-30.8 3.7-29.15-0.05-26.85-3.8-24.55-6-22.15-8.2-19.75-8.2-18.05L-8.2-18.05Q-8.2-16-5.15-16-2.1-16 2.78-18.63 7.65-21.25 11.05-24.9L11.05-24.9Q11.6-25.45 11.8-25.45L11.8-25.45Q11.9-25.45 11.9-25.3 11.9-25.15 11.85-25.05L11.85-25.05Q10.4-21.65 5-17.88-0.4-14.1-5.35-14.1-10.3-14.1-10.3-16.95L-10.3-16.95Q-10.3-19.1-7.5-22.05-4.7-25-0.25-27.78 4.2-30.55 10.63-32.48 17.05-34.4 23.5-34.4ZM21-30.95L21.25-30.75Q21.25-30.6 17.75-24.1L17.75-24.1Q8.2-6.35 4.65 0.4L4.65 0.4Q4.35 1.05 3.55 1.4 2.75 1.75 2.33 1.75 1.9 1.75 1.9 1.53 1.9 1.3 6.15-6.5 10.4-14.3 14.63-22.03 18.85-29.75 18.75-29.8L18.75-29.8Q19.05-30.3 19.75-30.55L19.75-30.55 21-30.95ZM14.05-0.65L14.05-0.65Q14.5-0.65 19.07-4.63 23.65-8.6 24.45-8.6 25.25-8.6 25.25-7.9L25.25-7.9Q25.25-7.35 24.25-6.2 23.25-5.05 22.27-3.7 21.3-2.35 21.3-1.3L21.3-1.3Q21.3-0.75 22.12-0.75 22.95-0.75 25.05-1.73 27.15-2.7 28.75-3.7L28.75-3.7 30.35-4.7Q30.4-4.6 30.4-4.3 30.4-4 29.95-3.8L29.95-3.8Q23.2 0.8 20.55 0.8L20.55 0.8Q19.25 0.8 19.25-0.6L19.25-0.6Q19.25-1.55 19.95-2.9 20.65-4.25 21.35-5.15L21.35-5.15 22-6.05Q19.75-4.35 17.35-2.23 14.95-0.1 13.7 0.98 12.45 2.05 11.95 2.05 11.45 2.05 11.45 1.33 11.45 0.6 13.8-3.7 16.15-8 19.22-12.98 22.3-17.95 25.67-22 29.05-26.05 30.8-26.05L30.8-26.05Q31.55-26.05 31.85-25.35L31.85-25.35Q32-25.1 32-24.75L32-24.75Q32-21.3 21.65-11.5L21.65-11.5Q19.7-9.6 17.85-8L17.85-8Q14.05-1.6 14.05-0.65ZM30.35-24.2L30.35-24.2Q30.35-24.7 30.1-24.7L30.1-24.7Q29.1-24.7 25.9-20.3 22.7-15.9 19.1-10.05L19.1-10.05Q30.35-20.3 30.35-24.2ZM31.75-4.85L31.75-4.85Q28.75-4.85 28.75-6.15L28.75-6.15Q28.75-7.7 32.3-9.83 35.84-11.95 38.7-11.95L38.7-11.95Q40.15-11.95 40.15-11.05L40.15-11.05Q40.15-10.55 39.4-9.95 38.65-9.35 37.95-9 37.25-8.65 37.15-8.65L37.15-8.65Q36.84-8.65 36.75-8.9L36.75-8.9Q36.65-9.25 37.27-9.63 37.9-10 37.9-10.45 37.9-10.9 36.77-10.9 35.65-10.9 33.24-9.33 30.84-7.75 30.84-6.75L30.84-6.75Q30.84-6 32.59-6L32.59-6Q32.9-6 33.7-6.05 34.5-6.1 34.5-5.85 34.5-5.6 32.02-4.05 29.55-2.5 29.55-1.4L29.55-1.4Q29.55-0.15 31.17-0.15 32.8-0.15 34.84-1L34.84-1Q38.15-2.45 40.84-4.1L40.84-4.1 41.8-4.7Q41.84-4.6 41.84-4.3 41.84-4 41.4-3.8L41.4-3.8Q38.75-2 35.59-0.38 32.45 1.25 29.92 1.25 27.39 1.25 27.39-0.43 27.39-2.1 31.75-4.85Z" fill="#ffffff" data-fill-palette-color="primary"></path><path d="M63.4-30.95L63.65-30.75Q63.65-30.65 63.3-29.88 62.95-29.1 54-13.15L54-13.15Q61.4-16.2 67.2-21.53 73-26.85 73-30.8L73-30.8Q73-35.55 64.1-35.55L64.1-35.55Q58.9-35.55 52.35-33.15 45.8-30.75 41.1-27.05 36.4-23.35 36.4-20.05L36.4-20.05Q36.4-17.25 39.9-17.25L39.9-17.25Q42.85-17.25 46.88-19.33 50.9-21.4 54.1-24.85L54.1-24.85Q54.5-25.5 54.83-25.5 55.15-25.5 55.15-25.15L55.15-25.15Q55.15-24 52.2-21.63 49.25-19.25 45.1-17.28 40.95-15.3 38.15-15.3L38.15-15.3Q34.3-15.3 34.3-19.25L34.3-19.25Q34.3-22.7 39.72-27 45.15-31.3 52.7-34.27 60.25-37.25 65.95-37.25L65.95-37.25Q75.45-37.25 75.45-32L75.45-32Q75.45-27.45 68.73-21.3 62-15.15 53.25-11.8L53.25-11.8Q48.25-2.85 46.6-0.05L46.6-0.05Q46.3 0.6 45.5 0.95 44.7 1.3 44.28 1.3 43.85 1.3 43.85 1.05L43.85 1.05 50.5-10.85Q47.35-9.9 44.65-9.6L44.65-9.6Q44.35-9.6 44.35-10.23 44.35-10.85 44.9-10.9L44.9-10.9Q47.85-11.05 51.25-12.15L51.25-12.15 61.25-30Q61.4-30.4 62.15-30.68 62.9-30.95 63.4-30.95L63.4-30.95ZM64.45-5.95L64.45-5.95Q64.15-5.95 64.15-6.3L64.15-6.3 64.3-6.65Q65.2-7.5 65.2-8.1L65.2-8.1Q65.2-8.85 64.4-8.85L64.4-8.85Q62.65-8.85 59.67-6.43 56.7-4 56.7-2.1L56.7-2.1Q56.7-1.3 57.75-1.3 58.8-1.3 60.17-2.18 61.55-3.05 62.52-3.93 63.5-4.8 63.6-4.8L63.6-4.8Q64.1-4.75 64.1-4.3L64.1-4.3Q64.1-4.1 63.32-3 62.55-1.9 62.55-1.25L62.55-1.25Q62.55-0.75 63.37-0.75 64.2-0.75 66.3-1.73 68.4-2.7 70-3.7L70-3.7 71.6-4.7Q71.65-4.6 71.65-4.3 71.65-4 71.2-3.8L71.2-3.8Q64.45 0.8 61.8 0.8L61.8 0.8Q60.5 0.8 60.5-0.5L60.5-0.5Q60.5-1.05 60.7-1.65L60.7-1.65Q60.35-1.25 58.62-0.43 56.9 0.4 55.55 0.4 54.2 0.4 54.2-0.85L54.2-0.85Q54.2-3.8 58.3-6.88 62.4-9.95 65.2-9.95L65.2-9.95Q66.85-9.95 66.85-8.55L66.85-8.55Q66.85-7.75 65.85-6.85 64.85-5.95 64.45-5.95ZM73.19-5.45L73.19-5.45Q70.79-3.25 70.14-3.25L70.14-3.25Q69.94-3.25 69.94-3.45 69.94-3.65 70.09-3.8L70.09-3.8Q71.29-4.45 72.89-5.9L72.89-5.9Q72.64-6.5 72.64-7.2L72.64-7.2Q72.64-8.9 74.4-10.45 76.15-12 77.34-12L77.34-12Q77.99-12 77.99-11.38 77.99-10.75 75.99-8.35L75.99-8.35Q75.8-8.1 75.55-7.85 75.3-7.6 75.02-7.28 74.74-6.95 74.59-6.8L74.59-6.8Q74.84-6.55 75.49-5.93 76.15-5.3 76.55-4.9L76.55-4.9Q77.65-3.8 77.65-2.15 77.65-0.5 75.59 0.73 73.55 1.95 71.32 1.95 69.09 1.95 69.09 0.63 69.09-0.7 71.14-1.8 73.19-2.9 75.44-3.3L75.44-3.3Q75.15-3.7 74.32-4.35 73.49-5 73.19-5.45ZM75.8-2.7Q74.09-2.5 72.59-1.78 71.09-1.05 71.09-0.08 71.09 0.9 72.47 0.9 73.84 0.9 74.92 0.25 75.99-0.4 75.99-1.2 75.99-2 75.8-2.7L75.8-2.7ZM74.24-7.2L74.24-7.2 75.55-8.6Q76.84-10.15 76.84-10.48 76.84-10.8 76.55-10.8L76.55-10.8Q75.69-10.8 74.8-9.98 73.9-9.15 73.9-8.38 73.9-7.6 74.24-7.2ZM81.09-16.5L81.09-16.5Q84.49-16.5 87.79-16.55L87.79-16.55Q93.14-23.4 95.09-23.4L95.09-23.4Q95.79-23.4 95.79-22.65L95.79-22.65Q95.79-20.25 92.29-16.65L92.29-16.65 96.09-16.7Q99.89-16.85 100.74-16.85 101.59-16.85 101.59-16.65L101.59-16.65Q101.59-15.7 100.29-15.65L100.29-15.65 90.89-15.25Q88.44-12.95 84.84-10.4L84.84-10.4Q81.04-4.15 81.04-1.9L81.04-1.9Q81.04-0.75 82.52-0.75 83.99-0.75 87.19-2.35L87.19-2.35 91.24-4.7Q91.29-4.6 91.29-4.3 91.29-4 90.84-3.8L90.84-3.8Q89.24-2.7 87.34-1.6L87.34-1.6Q83.29 0.45 81.14 0.45L81.14 0.45Q80.14 0.45 79.59 0.05 79.04-0.35 78.99-0.75L78.99-0.75 78.89-1.15Q78.89-2.85 81.19-6.88 83.49-10.9 86.64-15.1L86.64-15.1Q84.24-15 82.09-15 79.94-15 79.94-15.5L79.94-15.5Q79.94-16.45 81.09-16.5ZM94.24-21.6L94.24-21.6Q94.24-21.85 94.04-21.85L94.04-21.85Q92.89-21.85 88.94-16.6L88.94-16.6 91.44-16.6Q94.24-19.65 94.24-21.6ZM90.04-15.2L90.04-15.2Q88.44-15.2 87.89-15.15L87.89-15.15Q87.44-14.5 86.64-13.25 85.84-12 85.54-11.55L85.54-11.55Q88.14-13.45 90.04-15.2ZM90.29-3.35L90.29-3.35Q90.09-3.25 89.92-3.25 89.74-3.25 89.74-3.45 89.74-3.65 89.89-3.8L89.89-3.8Q91.94-4.95 94.39-7.55L94.39-7.55Q92.14-8.25 92.14-9.53 92.14-10.8 93.84-12.38 95.54-13.95 97.04-13.95L97.04-13.95Q98.04-13.95 98.04-12.75L98.04-12.75Q98.04-10.9 96.19-8.8L96.19-8.8Q98.59-8.4 98.59-7.65L98.59-7.65Q98.59-6.65 97.72-6.13 96.84-5.6 95.69-4.25 94.54-2.9 94.54-1.55L94.54-1.55Q94.54-1.25 94.74-1 94.94-0.75 95.59-0.75 96.24-0.75 98.34-1.73 100.44-2.7 102.04-3.7L102.04-3.7 103.64-4.7Q103.69-4.6 103.69-4.3 103.69-4 103.24-3.8L103.24-3.8Q96.49 0.8 93.84 0.8L93.84 0.8Q92.54 0.8 92.54-0.5L92.54-0.5Q92.54-1.55 93.27-2.7 93.99-3.85 94.87-4.6 95.74-5.35 96.47-6.03 97.19-6.7 97.19-6.9 97.19-7.1 96.57-7.15 95.94-7.2 94.94-7.4L94.94-7.4Q92.19-4.45 90.29-3.35ZM93.39-10.3L93.39-10.3Q93.39-9.3 95.59-8.9L95.59-8.9Q96.89-10.5 96.89-11.68 96.89-12.85 96.14-12.85 95.39-12.85 94.39-11.98 93.39-11.1 93.39-10.3ZM114.94-9.35Q114.94-9.3 113.81-7.58 112.69-5.85 112.06-4.95 111.44-4.05 106.84 3.45L106.84 3.45Q107.24 3.4 108.14 3.4L108.14 3.4Q110.54 3.4 110.54 4.65L110.54 4.65Q110.54 5.35 109.64 6.3 108.74 7.25 108.24 7.25 107.74 7.25 107.74 6.9L107.74 6.9Q107.74 6.7 108.29 6.28 108.84 5.85 108.84 5.28 108.84 4.7 107.86 4.7 106.89 4.7 105.99 4.85L105.99 4.85Q101.44 12.3 98.14 16.5 94.84 20.7 92.49 20.7L92.49 20.7Q90.79 20.7 90.79 18.95L90.79 18.95Q90.79 15.95 95.31 10.63 99.84 5.3 105.14 3.8L105.14 3.8 109.94-4.5Q107.84-2.6 105.61-1.15 103.39 0.3 102.24 0.3 101.09 0.3 101.09-0.75L101.09-0.75Q101.09-2.35 106.34-9.6L106.34-9.6Q106.59-10 106.99-10L106.99-10Q108.14-9.65 108.14-9.5 108.14-9.35 107.84-8.9L107.84-8.9Q103.34-2.8 103.34-1.85L103.34-1.85Q103.34-1.25 104.01-1.25 104.69-1.25 106.81-2.85 108.94-4.45 110.44-6.1L110.44-6.1 113.24-9.5Q113.54-9.85 113.99-9.85L113.99-9.85Q114.94-9.7 114.94-9.35L114.94-9.35ZM95.64 11.68Q94.19 13.65 93.34 15.43 92.49 17.2 92.49 18.23 92.49 19.25 93.29 19.25L93.29 19.25Q95.79 19.25 104.24 5.25L104.24 5.25Q101.74 6.05 99.41 7.88 97.09 9.7 95.64 11.68Z" fill="#ffffff" data-fill-palette-color="primary"></path><path d="M136.49-30.95L136.74-30.75Q136.74-30.65 136.39-29.88 136.04-29.1 127.09-13.15L127.09-13.15Q134.49-16.2 140.29-21.53 146.09-26.85 146.09-30.8L146.09-30.8Q146.09-35.55 137.19-35.55L137.19-35.55Q131.99-35.55 125.44-33.15 118.89-30.75 114.19-27.05 109.49-23.35 109.49-20.05L109.49-20.05Q109.49-17.25 112.99-17.25L112.99-17.25Q115.94-17.25 119.97-19.33 123.99-21.4 127.19-24.85L127.19-24.85Q127.59-25.5 127.92-25.5 128.24-25.5 128.24-25.15L128.24-25.15Q128.24-24 125.29-21.63 122.34-19.25 118.19-17.28 114.04-15.3 111.24-15.3L111.24-15.3Q107.39-15.3 107.39-19.25L107.39-19.25Q107.39-22.7 112.81-27 118.24-31.3 125.79-34.27 133.34-37.25 139.04-37.25L139.04-37.25Q148.54-37.25 148.54-32L148.54-32Q148.54-27.45 141.82-21.3 135.09-15.15 126.34-11.8L126.34-11.8Q121.34-2.85 119.69-0.05L119.69-0.05Q119.39 0.6 118.59 0.95 117.79 1.3 117.37 1.3 116.94 1.3 116.94 1.05L116.94 1.05 123.59-10.85Q120.44-9.9 117.74-9.6L117.74-9.6Q117.44-9.6 117.44-10.23 117.44-10.85 117.99-10.9L117.99-10.9Q120.94-11.05 124.34-12.15L124.34-12.15 134.34-30Q134.49-30.4 135.24-30.68 135.99-30.95 136.49-30.95L136.49-30.95ZM137.54-5.95L137.54-5.95Q137.24-5.95 137.24-6.3L137.24-6.3 137.39-6.65Q138.29-7.5 138.29-8.1L138.29-8.1Q138.29-8.85 137.49-8.85L137.49-8.85Q135.74-8.85 132.76-6.43 129.79-4 129.79-2.1L129.79-2.1Q129.79-1.3 130.84-1.3 131.89-1.3 133.26-2.18 134.64-3.05 135.61-3.93 136.59-4.8 136.69-4.8L136.69-4.8Q137.19-4.75 137.19-4.3L137.19-4.3Q137.19-4.1 136.41-3 135.64-1.9 135.64-1.25L135.64-1.25Q135.64-0.75 136.46-0.75 137.29-0.75 139.39-1.73 141.49-2.7 143.09-3.7L143.09-3.7 144.69-4.7Q144.74-4.6 144.74-4.3 144.74-4 144.29-3.8L144.29-3.8Q137.54 0.8 134.89 0.8L134.89 0.8Q133.59 0.8 133.59-0.5L133.59-0.5Q133.59-1.05 133.79-1.65L133.79-1.65Q133.44-1.25 131.71-0.43 129.99 0.4 128.64 0.4 127.29 0.4 127.29-0.85L127.29-0.85Q127.29-3.8 131.39-6.88 135.49-9.95 138.29-9.95L138.29-9.95Q139.94-9.95 139.94-8.55L139.94-8.55Q139.94-7.75 138.94-6.85 137.94-5.95 137.54-5.95ZM144.58 0.8L144.58 0.8Q142.33 0.8 142.33-1.65L142.33-1.65Q142.33-4.9 145.86-10.98 149.39-17.05 153.91-21.88 158.43-26.7 161.03-26.7L161.03-26.7Q161.99-26.7 161.99-25.35L161.99-25.35Q161.99-23.25 158.46-18.5 154.93-13.75 150.89-9.6 146.83-5.45 144.63-3.9L144.63-3.9Q144.53-3.1 144.53-2.83 144.53-2.55 144.58-2.2 144.63-1.85 144.98-1.3 145.33-0.75 146.16-0.75 146.99-0.75 149.08-1.73 151.18-2.7 152.78-3.7L152.78-3.7 154.39-4.7Q154.43-4.6 154.43-4.3 154.43-4 153.99-3.8L153.99-3.8Q147.24 0.8 144.58 0.8ZM160.18-24.15L160.18-24.15Q160.14-25.25 159.53-25.25L159.53-25.25Q157.99-25.25 154.83-21.75 151.68-18.25 148.74-13.38 145.78-8.5 144.88-5L144.88-5Q146.99-6.7 150.28-10 153.58-13.3 156.78-17.55 159.99-21.8 160.18-24.15ZM162.33-5.95L162.33-5.95Q162.03-5.95 162.03-6.3L162.03-6.3 162.18-6.65Q163.08-7.5 163.08-8.1L163.08-8.1Q163.08-8.85 162.28-8.85L162.28-8.85Q160.53-8.85 157.56-6.43 154.58-4 154.58-2.1L154.58-2.1Q154.58-1.3 155.63-1.3 156.68-1.3 158.06-2.18 159.43-3.05 160.41-3.93 161.38-4.8 161.48-4.8L161.48-4.8Q161.98-4.75 161.98-4.3L161.98-4.3Q161.98-4.1 161.21-3 160.43-1.9 160.43-1.25L160.43-1.25Q160.43-0.75 161.26-0.75 162.08-0.75 164.18-1.73 166.28-2.7 167.88-3.7L167.88-3.7 169.48-4.7Q169.53-4.6 169.53-4.3 169.53-4 169.08-3.8L169.08-3.8Q162.33 0.8 159.68 0.8L159.68 0.8Q158.38 0.8 158.38-0.5L158.38-0.5Q158.38-1.05 158.58-1.65L158.58-1.65Q158.23-1.25 156.51-0.43 154.78 0.4 153.43 0.4 152.08 0.4 152.08-0.85L152.08-0.85Q152.08-3.8 156.18-6.88 160.28-9.95 163.08-9.95L163.08-9.95Q164.73-9.95 164.73-8.55L164.73-8.55Q164.73-7.75 163.73-6.85 162.73-5.95 162.33-5.95ZM174.18-1.2L174.68-1.4Q177.08-2.4 179.83-4.1L179.83-4.1 180.78-4.7Q180.83-4.6 180.83-4.3 180.83-4 180.38-3.8L180.38-3.8Q177.73-2 175.08-0.65 172.43 0.7 170.18 0.7L170.18 0.7Q167.33 0.7 167.33-1.35L167.33-1.35Q167.33-3.8 170.76-6.88 174.18-9.95 177.53-9.95L177.53-9.95Q178.93-9.95 178.93-8.75L178.93-8.75Q178.93-8.05 177.68-7L177.68-7Q175.93-5.55 175.48-5.55 175.03-5.55 175.03-5.95L175.03-5.95Q175.03-6.1 175.23-6.25L175.23-6.25Q175.73-6.55 176.36-7.18 176.98-7.8 176.98-8.25L176.98-8.25Q176.98-8.95 176.33-8.95L176.33-8.95Q174.93-8.95 172.23-6.43 169.53-3.9 169.53-2.35L169.53-2.35Q169.53-0.6 171.43-0.6L171.43-0.6Q172.68-0.6 174.18-1.2L174.18-1.2ZM182.13-4.85L182.13-4.85Q179.13-4.85 179.13-6.15L179.13-6.15Q179.13-7.7 182.68-9.83 186.23-11.95 189.08-11.95L189.08-11.95Q190.53-11.95 190.53-11.05L190.53-11.05Q190.53-10.55 189.78-9.95 189.03-9.35 188.33-9 187.63-8.65 187.53-8.65L187.53-8.65Q187.23-8.65 187.13-8.9L187.13-8.9Q187.03-9.25 187.65-9.63 188.28-10 188.28-10.45 188.28-10.9 187.15-10.9 186.03-10.9 183.63-9.33 181.23-7.75 181.23-6.75L181.23-6.75Q181.23-6 182.98-6L182.98-6Q183.28-6 184.08-6.05 184.88-6.1 184.88-5.85 184.88-5.6 182.4-4.05 179.93-2.5 179.93-1.4L179.93-1.4Q179.93-0.15 181.55-0.15 183.18-0.15 185.23-1L185.23-1Q188.53-2.45 191.23-4.1L191.23-4.1 192.18-4.7Q192.23-4.6 192.23-4.3 192.23-4 191.78-3.8L191.78-3.8Q189.13-2 185.98-0.38 182.83 1.25 180.3 1.25 177.78 1.25 177.78-0.43 177.78-2.1 182.13-4.85Z" fill="#ffffff" data-fill-palette-color="primary"></path></g></svg></g></svg></g></svg></g></svg></g><g transform="matrix(1,0,0,1,85.93762876965506,0)"><svg viewBox="0 0 223.64474246068986 223.64474246068986" height="223.64474246068986" width="223.64474246068986"><g><svg></svg></g><g id="icon-0"><svg viewBox="0 0 223.64474246068986 223.64474246068986" height="223.64474246068986" width="223.64474246068986"><g><path d="M0 111.822c0-61.758 50.065-111.822 111.822-111.822 61.758 0 111.822 50.065 111.823 111.822 0 61.758-50.065 111.822-111.823 111.823-61.758 0-111.822-50.065-111.822-111.823zM111.822 213.41c56.105 0 101.587-45.482 101.588-101.588 0-56.105-45.482-101.587-101.588-101.587-56.105 0-101.587 45.482-101.587 101.587 0 56.105 45.482 101.587 101.587 101.588z" data-fill-palette-color="accent" fill="#ffffff" stroke="transparent"></path></g><g transform="matrix(1,0,0,1,50.494502124652335,72.96233290041255)"><svg viewBox="0 0 122.65573821138518 77.72007665986476" height="77.72007665986476" width="122.65573821138518"><g><svg xmlns="http://www.w3.org/2000/svg" xmlns:xlink="http://www.w3.org/1999/xlink" version="1.1" x="0" y="0" viewBox="2.1630001068115234 19.689739227294922 95.67399597167969 60.62325668334961" enable-background="new 0 0 100 100" xml:space="preserve" height="77.72007665986476" width="122.65573821138518" class="icon-s-0" data-fill-palette-color="accent" id="s-0"><path d="M97.5 63.437H73.524v-2.119c-0.015-1.14 0.516-2.237 1.418-2.933 0.086-0.067 0.135-0.172 0.13-0.281-0.005-0.109-0.062-0.21-0.155-0.269-0.248-0.159-0.515-0.278-0.797-0.358v-1.3c0-0.186-0.151-0.337-0.337-0.337h-0.375v-0.126c0-0.186-0.151-0.337-0.337-0.337h-7.99v-4.388c0.368-0.55 0.946-0.938 1.599-1.07 0.157-0.032 0.27-0.17 0.27-0.33v-4.811c-0.008-1.206 0.843-2.254 2.024-2.492 0.157-0.032 0.27-0.17 0.27-0.33v-2.415c0-0.186-0.151-0.337-0.337-0.337h-7.306v-3.871c0-0.029-0.01-0.055-0.017-0.082 0.007-0.027 0.017-0.053 0.017-0.082v-1.983c-0.138-6.651-4.993-12.325-11.542-13.491-0.039-0.007-0.079-0.007-0.118 0-6.549 1.166-11.404 6.84-11.543 13.498v1.976c0 0.029 0.01 0.055 0.017 0.082-0.007 0.027-0.017 0.053-0.017 0.082v3.871h-7.306c-0.186 0-0.337 0.151-0.337 0.337v2.415c0 0.16 0.113 0.298 0.27 0.33 1.165 0.236 2.017 1.269 2.025 2.455v4.849c0 0.16 0.113 0.298 0.27 0.33 0.652 0.132 1.23 0.52 1.599 1.071v4.387H26.93c-0.186 0-0.337 0.151-0.337 0.337v0.126h-0.375c-0.186 0-0.337 0.151-0.337 0.337v1.3c-0.282 0.08-0.549 0.199-0.797 0.358-0.092 0.059-0.15 0.16-0.155 0.269-0.005 0.109 0.044 0.214 0.13 0.281 0.902 0.697 1.432 1.793 1.418 2.938v2.114H2.5c-0.186 0-0.337 0.151-0.337 0.337v16.201c0 0.186 0.151 0.337 0.337 0.337h0.388c0.186 0 0.337-0.151 0.337-0.337V68.988c-0.018-1.422 0.784-2.713 2.055-3.33 1.271 0.617 2.073 1.907 2.055 3.334v10.982c0 0.186 0.151 0.337 0.337 0.337h0.851c0.186 0 0.337-0.151 0.337-0.337V68.988c-0.023-1.792 1.284-3.35 3.047-3.646 1.763 0.296 3.07 1.854 3.047 3.651v10.982c0 0.186 0.151 0.337 0.337 0.337h0.851c0.186 0 0.337-0.151 0.337-0.337V68.988c-0.023-1.792 1.284-3.35 3.047-3.646 1.764 0.296 3.07 1.854 3.047 3.651v10.982c0 0.186 0.151 0.337 0.337 0.337h0.851c0.186 0 0.337-0.151 0.337-0.337V68.988c-0.023-1.792 1.284-3.35 3.047-3.646 1.764 0.296 3.07 1.854 3.047 3.651v10.982c0 0.186 0.151 0.337 0.337 0.337h0.851c0.186 0 0.337-0.151 0.337-0.337V68.988c-0.023-1.792 1.284-3.35 3.047-3.646 1.764 0.296 3.07 1.854 3.047 3.651v10.982c0 0.186 0.151 0.337 0.337 0.337h0.851c0.186 0 0.337-0.151 0.337-0.337V68.988c-0.023-1.792 1.284-3.35 3.047-3.646 1.764 0.296 3.07 1.854 3.047 3.651v10.982c0 0.186 0.151 0.337 0.337 0.337h0.851c0.186 0 0.337-0.151 0.337-0.337V68.988c-0.023-1.792 1.284-3.35 3.047-3.646 1.764 0.296 3.07 1.854 3.047 3.651v10.982c0 0.186 0.151 0.337 0.337 0.337h0.852c0.186 0 0.337-0.151 0.337-0.337V68.988c-0.023-1.792 1.284-3.35 3.047-3.646 1.764 0.296 3.071 1.854 3.048 3.651v10.982c0 0.186 0.151 0.337 0.337 0.337h0.851c0.186 0 0.337-0.151 0.337-0.337V68.988c-0.023-1.792 1.284-3.35 3.047-3.646 1.764 0.296 3.071 1.854 3.048 3.651v10.982c0 0.186 0.151 0.337 0.337 0.337h0.851c0.186 0 0.337-0.151 0.337-0.337V68.988c-0.023-1.792 1.284-3.35 3.048-3.646 1.763 0.296 3.07 1.854 3.047 3.651v10.982c0 0.186 0.151 0.337 0.337 0.337h0.852c0.186 0 0.337-0.151 0.337-0.337V68.988c-0.023-1.792 1.283-3.35 3.047-3.646 1.764 0.296 3.07 1.854 3.047 3.651v10.982c0 0.186 0.151 0.337 0.337 0.337h0.852c0.186 0 0.337-0.151 0.337-0.337V68.988c-0.023-1.792 1.283-3.35 3.047-3.646 1.764 0.296 3.071 1.854 3.048 3.651v10.982c0 0.186 0.151 0.337 0.337 0.337h0.851c0.186 0 0.337-0.151 0.337-0.337V68.988c-0.019-1.422 0.784-2.713 2.055-3.33 1.271 0.617 2.073 1.907 2.055 3.334v10.982c0 0.186 0.151 0.337 0.337 0.337H97.5c0.186 0 0.337-0.151 0.337-0.337V63.774C97.837 63.589 97.686 63.437 97.5 63.437zM27.963 61.318c-0.023-1.792 1.283-3.35 3.047-3.646 1.764 0.296 3.07 1.854 3.047 3.651v2.114h-6.094V61.318zM38.144 55.377h-2.291v-4.199c0.358-0.584 0.906-1.032 1.553-1.265 0.134-0.048 0.223-0.175 0.223-0.317v-4.818c-0.009-1.223 0.846-2.263 2.041-2.496 1.178 0.23 2.032 1.255 2.041 2.458V55.84h-3.229v-0.126C38.481 55.528 38.331 55.377 38.144 55.377zM43.125 55.84v-9.789c-0.023-1.793 1.283-3.351 3.047-3.646 1.764 0.295 3.07 1.853 3.047 3.65v9.784H43.125zM50.781 55.84v-9.789c-0.023-1.793 1.284-3.351 3.048-3.646 1.763 0.295 3.07 1.853 3.047 3.65v9.784H50.781zM62.593 49.913c0.647 0.232 1.196 0.68 1.554 1.265v4.199h-2.292c-0.186 0-0.337 0.151-0.337 0.337v0.126h-3.229V44.778c-0.008-1.223 0.847-2.263 2.041-2.496 1.177 0.23 2.032 1.255 2.04 2.458v4.856C62.37 49.738 62.459 49.865 62.593 49.913zM35.544 61.318c-0.023-1.792 1.284-3.35 3.047-3.646 1.764 0.296 3.07 1.855 3.047 3.651v2.114h-6.094V61.318zM43.125 61.318c-0.023-1.792 1.284-3.35 3.047-3.646 1.763 0.296 3.07 1.855 3.047 3.651v2.114h-6.094V61.318zM50.781 61.318c-0.023-1.792 1.284-3.35 3.048-3.646 1.763 0.296 3.07 1.855 3.047 3.651v2.114h-6.094V61.318zM58.362 61.318c-0.023-1.792 1.284-3.35 3.048-3.646 1.764 0.296 3.07 1.855 3.047 3.651v2.114h-6.094V61.318zM65.943 61.318c-0.023-1.792 1.284-3.35 3.047-3.646 1.764 0.296 3.071 1.854 3.048 3.651v2.114h-6.094V61.318z" fill="#ffffff" data-fill-palette-color="accent"></path></svg></g></svg></g></svg></g></svg></g><g></g></svg></g></svg></g><defs></defs></svg><rect width="250.23228559078152" height="247.2" fill="none" stroke="none" visibility="hidden"></rect></g></svg></g></svg>